<?xml version="1.0" standalone="no"?>
<!DOCTYPE svg PUBLIC "-//W3C//DTD SVG 1.1//EN" "http://www.w3.org/Graphics/SVG/1.1/DTD/svg11.dtd" >
<svg xmlns="http://www.w3.org/2000/svg">
<metadata></metadata>
<defs>
<font id="d3_euronismregular" horiz-adv-x="1024" >
<font-face units-per-em="2048" ascent="1638" descent="-410" />
<missing-glyph horiz-adv-x="1600" />
<glyph horiz-adv-x="0" />
<glyph horiz-adv-x="682" />
<glyph unicode=" "  horiz-adv-x="1600" />
<glyph unicode="&#x09;" horiz-adv-x="1600" />
<glyph unicode="&#xa0;" horiz-adv-x="1600" />
<glyph unicode="!" horiz-adv-x="498" d="M140 125v55q4 16 7 29t14 27t21 24q10 6 23 14t29 8h32q76 -6 86 -118q6 -116 -38 -148q-10 -10 -24 -15t-24 -8t-26 -3l-68 32q-16 20 -24 47t-8 56zM140 492v810q18 106 116 100q10 -4 26 -7t36 -15t34 -68v-836l-32 -58q-16 -10 -30 -18t-32 -8h-34q-50 20 -65 44 t-15 35t-4 21z" />
<glyph unicode="&#x22;" horiz-adv-x="774" d="M80 890v412q24 102 116 100q10 -4 26 -7t27 -14l21 -21l22 -48v-434q-22 -58 -38 -66t-29 -13t-32 -5h-35q-58 22 -78 96zM482 878v440q26 84 116 84q80 -8 96 -106v-402q-6 -16 -9 -31t-16 -29t-23 -24t-26 -13t-32 -3h-32q-10 10 -26 16t-24 22t-20 26z" />
<glyph unicode="#" horiz-adv-x="1812" d="M0 500q20 92 98 96l302 2v200l-312 -2q-52 12 -68 45t-16 49v32q12 62 84 80l312 -2v304q20 100 116 98q88 -14 96 -90v-312h592l2 318q6 54 82 82q38 -2 54 -5t26 -14t22 -21l18 -52l2 -308h326q76 -24 76 -110q-12 -82 -84 -98l-318 2v-196l318 -2q48 -12 64 -37 t18 -40t2 -31q-4 -12 -7 -27t-18 -32t-69 -35l-308 -2l-2 -344q-24 -52 -50 -63t-45 -11h-35q-70 26 -72 100l-2 318h-592v-334q-20 -78 -112 -88q-88 26 -98 90l-2 332l-314 2q-66 18 -86 106zM612 598h592v196h-592v-196z" />
<glyph unicode="$" horiz-adv-x="1852" d="M24 360l36 58q10 12 26 17t32 5h32l58 -38l38 -90q10 -10 23 -15t29 -8t26 -7h498v332h-412q-48 10 -91 26t-82 40t-71 62q-32 36 -53 81t-29 95t-2 104q4 36 17 73t35 69t54 64q36 32 76 50t85 29t91 17h388q16 78 106 78q84 -12 90 -78h406q54 -6 101 -17t92 -29 t83 -56q20 -26 36 -55t24 -63t4 -72l-38 -58q-10 -10 -26 -16t-32 -6h-32l-58 38q-10 16 -16 29t-6 32t-16 29t-29 16t-29 8t-32 8h-428v-292h408q58 -10 114 -26t106 -45t92 -71q32 -38 50 -77t26 -84t8 -93q-4 -48 -20 -95t-45 -87t-73 -78q-30 -26 -67 -42t-77 -26 t-82 -22h-434l-32 -52q-10 -10 -24 -18t-29 -11t-31 -3q-12 6 -28 8t-26 13t-20 21l-16 42h-462l-14 -4q-48 4 -99 15t-93 35t-78 60q-22 26 -35 56t-20 59t-3 65zM292 938l38 -64q16 -10 34 -24t37 -19t39 -11h382v292h-402q-22 -6 -40 -11t-34 -16t-32 -27 q-10 -16 -16 -37t-6 -42v-41zM1028 282h408q20 4 42 9t40 13t34 20q10 10 26 21t24 24t14 29l4 90l-30 52q-28 22 -57 38t-63 24t-66 12h-376v-332z" />
<glyph unicode="%" horiz-adv-x="1918" d="M62 1048q2 64 2 122q4 26 17 55t29 53t42 46q76 58 163 71t361 7q48 -4 96 -15t90 -35t74 -66q38 -48 48 -106t7 -119t-3 -119q-10 -26 -20 -55t-26 -53t-40 -54l806 608q80 40 138 -22q30 -58 23 -87t-15 -40t-18 -21l-756 -570l124 36h346q48 -6 95 -17t92 -34t77 -67 q38 -42 51 -97t10 -111t-3 -114q-4 -26 -12 -55t-24 -56t-38 -47q-74 -64 -166 -83t-188 -16t-190 3q-48 6 -90 16t-85 31t-75 59q-42 48 -55 106t-10 119t3 119q4 32 15 61t75 117l-792 -598q-72 -36 -98 -28t-37 19l-21 21q-44 68 6 138l774 586q-88 -36 -160 -44l-318 2 q-48 0 -96 11t-93 35t-75 60q-44 48 -53 106t-7 122zM270 974q30 -50 106 -52h312l74 26q26 20 23 55t-3 69v66q-18 26 -48 42q-58 12 -185 12h-189q-56 -8 -80 -38q-10 -26 -10 -58v-61v-61zM1152 250l44 -38q58 -10 121 -10h127h126l70 26q26 22 23 59t-3 68v69 q-52 52 -126 50t-146 -2h-146q-14 -6 -30 -9t-30 -10t-24 -23z" />
<glyph unicode="&#x26;" horiz-adv-x="1872" d="M44 355q-4 63 0 127q10 48 26 93t42 85t68 76q16 16 37 27t43 21t42 16v10q-36 42 -63 92t-35 106t-2 114q10 38 23 75t37 68t56 59q32 26 64 42t69 24t73 12h678q48 -4 93 -18t87 -37t74 -65q42 -48 58 -109t16 -127v-130l-26 -52q-16 -12 -30 -20t-29 -10t-37 -2 l-58 32q-32 42 -29 97t0 108t-39 91l-70 32h-698q-16 -6 -32 -11t-29 -16t-23 -27q-12 -16 -17 -29t-5 -32v-35q10 -26 21 -50t47 -60t128 -84q148 -6 334 -4q74 -16 92 -46t18 -49v-39l-26 -48l-38 -26l414 -228q4 26 2 58t6 61t34 51q10 10 26 15t35 5h35q64 -20 74 -78 v-222l202 -114q80 -80 4 -168q-56 -26 -86 -21t-65 26t-72 40t-69 41q-32 -38 -69 -59t-76 -34t-83 -19h-846q-58 6 -113 22t-103 45t-90 71q-42 48 -69 106t-31 121zM250 398q4 -28 10 -51t16 -44t32 -43q20 -16 42 -27t43 -19t47 -12h856l22 10l-754 416l-118 2 q-28 -6 -57 -16t-53 -26t-44 -38q-16 -20 -27 -44t-13 -53t-2 -55z" />
<glyph unicode="'" horiz-adv-x="372" d="M80 890v412q24 102 116 100q10 -4 26 -7t27 -14l21 -21l22 -48v-434q-22 -58 -38 -66t-29 -13t-32 -5h-35q-58 22 -78 96z" />
<glyph unicode="(" horiz-adv-x="650" d="M24 604q10 128 44 255t100 238t166 201q32 26 64 47t64 39t74 18q44 -8 62 -27t23 -33t7 -29t2 -31q-4 -12 -7 -25t-13 -23l-22 -22q-62 -26 -115 -73t-93 -103t-72 -120q-32 -74 -50 -153t-23 -158t-5 -165q4 -104 28 -205t72 -193t122 -166q30 -28 60 -49t64 -39 t50 -56l4 -48l-26 -58q-16 -10 -29 -20t-31 -10h-40q-42 14 -82 41t-77 56t-73 65q-100 118 -159 258t-76 288t-13 300z" />
<glyph unicode=")" horiz-adv-x="650" d="M20 -316l4 48q16 38 50 56t64 39t60 49q74 74 122 166t72 193t28 205q0 86 -5 165t-23 158t-50 153q-32 64 -72 120t-93 103t-115 73l-22 22t-13 23t-7 25q0 16 2 31t7 29t23 33t62 27q42 0 74 -18t64 -39t64 -47q100 -90 166 -201t100 -238t44 -255q4 -152 -13 -300 t-76 -288t-159 -258q-36 -36 -73 -65t-77 -56t-82 -41h-40t-31 10t-29 20z" />
<glyph unicode="*" horiz-adv-x="1652" d="M0 509q0 43 60 83l364 112q-76 16 -336 92q-78 46 -83 62t-5 32v32l30 52q16 10 30 18t32 8h34l592 -164q0 64 2 130t-2 132t38 120q16 10 29 15t31 5h34l54 -36q26 -54 23 -117t-3 -124v-125q122 32 329 90t293 78q50 0 78 -40q10 -16 15 -29t9 -42t-46 -83l-378 -114 q208 -60 277 -76t127 -64q12 -10 14 -23t2 -29v-32l-32 -54q-10 -10 -26 -15t-32 -8t-32 -3l-598 164v-130t3 -132t-39 -118q-16 -12 -29 -17t-32 -5h-35q-10 10 -26 16t-26 19t-16 29l-6 338h-20q-102 -32 -305 -90t-277 -74q-48 4 -90 32q-12 16 -19 29t-7 56z" />
<glyph unicode="+" horiz-adv-x="1808" d="M0 688v32q16 62 78 80h720v518q22 82 112 84q78 -10 94 -78v-524h726q74 -26 78 -112q-4 -10 -7 -26t-14 -27l-21 -21l-42 -20h-720v-524l-26 -48q-10 -10 -24 -18t-29 -11t-31 -3q-12 6 -28 8t-26 13t-20 21l-22 42v520h-720l-58 36q-10 10 -15 26t-5 32z" />
<glyph unicode="," horiz-adv-x="452" d="M80 -114q16 52 35 105t35 109t52 98q10 10 24 13t27 5t29 2q10 -4 23 -7t24 -14l21 -21t13 -23t6 -27t3 -30q-22 -52 -38 -105l-32 -106t-52 -95q-10 -10 -24 -13t-27 -5t-29 -2q-10 4 -23 7t-24 13t-21 22z" />
<glyph unicode="-" horiz-adv-x="1808" d="M0 688v32q16 64 78 80h1652q74 -24 78 -112q-4 -10 -7 -26t-14 -27l-21 -21l-42 -20h-1646q-58 36 -52 25t-10 21t-16 48z" />
<glyph unicode="." horiz-adv-x="376" d="M80 104q0 42 31 73t77 31q44 0 76 -31t32 -73q0 -44 -32 -74t-76 -30q-46 0 -77 30t-31 74z" />
<glyph unicode="/" horiz-adv-x="1046" d="M20 88v40l826 1240q48 48 87 36t50 -23l21 -21q6 -10 14 -26t8 -32v-32l-816 -1238q-56 -48 -120 -36l-44 26q-10 16 -18 32t-8 34z" />
<glyph unicode="0" horiz-adv-x="1928" d="M60 418v530q10 64 31 127t58 119t89 102q38 32 86 53t95 35t101 18h882q64 -4 125 -20t114 -51t101 -81q36 -44 63 -96t43 -108t20 -114v-450q-4 -68 -23 -134t-53 -127t-88 -109q-42 -38 -92 -64t-103 -39t-111 -19h-852q-70 6 -138 27t-132 58t-112 95q-26 36 -50 76 t-34 82t-20 90zM266 472q4 -38 12 -75t29 -69t53 -58q28 -16 54 -32t55 -24t61 -12h878l106 32q26 16 50 37t40 50t32 55l20 90v482q-4 32 -15 63t-29 61t-46 56q-20 16 -47 29t-53 21t-52 14h-900q-32 -6 -64 -17t-58 -29t-52 -44q-22 -28 -38 -59t-24 -63t-12 -70v-438z " />
<glyph unicode="1" horiz-adv-x="1084" d="M40 90v32q22 48 50 66t92 16t127 -2h127v990l-302 2q-44 8 -62 26t-25 32t-7 32v40q30 78 94 78h418q86 -8 96 -90v-1110h126t130 2t120 -40q10 -16 15 -29t5 -31v-34l-26 -48q-10 -6 -21 -14t-24 -10t-23 -8h-816q-10 6 -26 8t-27 13l-21 21q-6 10 -13 26t-7 32z" />
<glyph unicode="2" horiz-adv-x="1912" d="M62 146q2 60 2 121v119q10 48 26 98t42 95t68 83q38 26 75 47t82 35t87 18h1048q20 6 42 11t40 21t34 32q22 26 32 55t15 58t5 67q-4 26 -15 53t-27 50t-36 45q-16 10 -29 18t-32 11t-35 9h-1110q-54 -10 -72 -37t-26 -59t-11 -66t-35 -56q-10 -10 -26 -16t-32 -6h-32 l-58 38q-10 16 -15 34t-5 37v41q10 42 23 81t37 76t60 69q28 22 59 38t63 24t70 12h1104q54 -4 107 -20t100 -48t85 -74q32 -42 53 -90t34 -101t13 -105q-4 -58 -23 -117t-51 -111t-78 -96q-32 -26 -69 -44t-77 -29t-82 -17h-1048q-22 -4 -43 -10t-39 -19t-34 -29 q-32 -36 -45 -86t-13 -101v-103h1512q84 -18 90 -112q-20 -90 -100 -100h-1614q-10 6 -26 8t-27 13l-21 21q-24 54 -22 114z" />
<glyph unicode="3" horiz-adv-x="1872" d="M24 360l36 58q10 12 26 17t32 5h32l58 -38q22 -26 22 -60t8 -66t34 -58q10 -12 23 -19t27 -10t30 -9h1074q26 6 52 14t50 24t46 36q20 28 31 62t13 71t2 73q-4 22 -9 46t-19 45t-34 37l-80 42h-1122q-10 6 -26 8t-27 13l-21 21q-10 12 -13 25t-5 26t-2 29q4 10 7 23 t13 24t22 21l48 22h1136q16 6 35 14t35 21t32 29q16 26 23 52t7 55v61q-4 16 -9 32t-16 32t-27 26l-58 28h-1174q-46 -6 -68 -35t-30 -61t-11 -66t-35 -56q-10 -10 -26 -16t-32 -6h-32l-58 38q-10 16 -15 34t-5 37v41q10 42 23 81t37 76t60 69q28 22 59 38t63 24t70 12h1164 q42 -4 84 -18t79 -32t69 -50q38 -36 61 -87t31 -104t8 -111q-4 -48 -18 -98t-40 -92t-58 -84q42 -42 69 -101t37 -119t10 -124q-4 -58 -20 -111t-48 -104t-74 -93q-32 -26 -72 -47t-79 -32t-83 -21h-1136q-38 10 -78 24t-71 35t-63 53q-32 36 -53 81t-28 93t-3 100z" />
<glyph unicode="4" horiz-adv-x="1988" d="M0 412q0 46 72 92l1376 894l44 4q10 -4 26 -7t26 -14t22 -21l20 -42v-814h310q60 -16 74 -43t16 -43t2 -32q-4 -70 -94 -92l-308 -2v-226q-18 -74 -110 -76q-68 6 -94 76l-2 226h-1296l-58 32q-12 16 -19 29t-7 59zM470 504h910v600z" />
<glyph unicode="5" horiz-adv-x="1932" d="M84 360l36 58q10 12 26 17t32 5h32q50 -18 65 -41t15 -55t8 -63t34 -53l52 -26h1132q22 4 43 12t42 22t37 30q22 26 32 60t10 71v75q-4 32 -12 63t-24 60t-42 51q-16 16 -35 24t-37 13t-40 11h-1328q-62 16 -78 80v550q30 74 94 78h1620q88 -8 94 -110q-4 -10 -7 -26 t-11 -27t-18 -21l-54 -26h-1512v-292h1232q48 -10 96 -26t90 -45t78 -71q44 -54 67 -117t31 -127t8 -132q-4 -54 -18 -107t-43 -100t-71 -85q-36 -32 -79 -50t-88 -31t-93 -19h-1104q-44 6 -89 19t-82 37t-67 60q-28 38 -46 77t-25 84t-3 93z" />
<glyph unicode="6" horiz-adv-x="1928" d="M80 344v684q10 52 26 100t42 93t68 81q38 26 77 50t82 35t91 15h1110q42 -4 79 -15t72 -35t67 -50q32 -36 53 -76t29 -85t12 -93q-4 -10 -7 -26t-14 -27l-21 -21t-26 -16t-32 -6h-32l-48 28q-26 26 -29 60t-10 66t-29 58l-64 28h-1116q-22 -6 -40 -11t-37 -16t-35 -27 q-36 -42 -49 -90t-13 -101v-105h1226q54 -10 104 -26t95 -48t83 -74q32 -42 53 -90t29 -98t12 -104q-4 -58 -20 -116t-48 -108t-80 -92q-36 -28 -76 -49t-80 -31t-88 -16h-1030q-48 6 -96 19t-93 34t-81 59q-32 30 -56 70t-37 82t-23 90zM286 392q4 -26 10 -53t19 -50 t39 -45q16 -10 32 -21t34 -14t34 -7h1048l96 36q32 28 50 59t23 68t5 81q-4 26 -15 52t-27 50t-36 46q-12 10 -27 18t-31 10t-32 8h-1222v-238z" />
<glyph unicode="7" horiz-adv-x="1814" d="M0 1284v40q34 78 94 78h1620q66 -10 84 -60t-14 -114l-788 -1200q-44 -48 -60 -51t-32 -3h-32q-10 10 -26 16t-39 38t13 108l682 1056h-1414q-58 22 -73 48t-15 44z" />
<glyph unicode="8" horiz-adv-x="1852" d="M24 355q-4 63 0 127q4 48 23 98t48 92t71 80l22 22q-38 42 -64 92t-34 106t-4 114q6 42 22 84t40 79t54 69q38 32 75 53t82 34t87 25h958q48 -12 98 -30t95 -45t83 -69q30 -42 54 -92t27 -106t3 -114q-10 -36 -21 -73t-35 -72t-44 -67l74 -62q36 -48 57 -99t29 -106 t8 -113q-4 -54 -20 -107t-48 -100t-74 -85q-38 -32 -83 -53t-92 -31t-95 -16h-990q-58 6 -111 22t-103 45t-92 71q-42 48 -69 106t-31 121zM230 398q4 -28 10 -51t16 -44t32 -43q20 -16 42 -29t45 -19t45 -10l1012 -2q128 28 178 128q14 92 10 123t-12 55t-24 45t-38 43 q-20 16 -39 26t-43 18t-44 14h-990q-26 -12 -52 -22t-53 -26t-49 -38q-14 -26 -25 -52t-16 -55t-5 -61zM298 996l32 -70q22 -16 40 -26t39 -18t43 -14l944 4q156 24 162 186q-6 22 -11 40t-16 34t-27 32q-20 16 -42 29t-45 19t-45 10h-894q-26 -4 -50 -12t-48 -24t-44 -32 q-16 -22 -27 -45t-11 -55v-58z" />
<glyph unicode="9" horiz-adv-x="1892" d="M24 360l36 58q10 12 26 17t32 5h32q74 -16 77 -74t16 -87t39 -57l54 -20h1110q22 4 46 12t42 19t34 33q32 36 45 84t10 98t-3 102h-1222q-52 6 -102 22t-93 45t-79 71q-38 48 -62 104t-33 114t-5 122q10 52 26 100t42 93t68 81q38 26 77 50t82 35t91 15h1036 q54 -4 107 -20t97 -43t82 -69q32 -36 53 -79t32 -88t15 -91v-610q-4 -58 -20 -116t-48 -108t-80 -92q-36 -28 -76 -49t-80 -31t-88 -16h-1104q-48 6 -91 19t-80 39t-67 64q-28 36 -44 76t-25 82t-5 90zM230 964q4 -26 12 -56t24 -56t38 -48q16 -10 29 -18t31 -13t34 -11 h1222v260q-4 20 -9 42t-16 40t-27 34q-16 10 -34 24t-37 19t-41 11h-1052q-22 -6 -40 -11t-37 -16t-35 -27q-20 -26 -33 -53t-21 -58t-8 -63z" />
<glyph unicode=":" horiz-adv-x="376" d="M80 456q0 42 31 73t77 31q44 0 76 -31t32 -73q0 -44 -32 -74t-76 -30q-46 0 -77 30t-31 74zM80 856q0 42 31 73t77 31q44 0 76 -31t32 -73q0 -44 -32 -74t-76 -30q-46 0 -77 30t-31 74z" />
<glyph unicode=";" horiz-adv-x="432" d="M60 230q16 52 35 105t35 109t52 98q10 10 24 13t27 5t29 2q10 -4 23 -7t24 -14l21 -21t13 -23t6 -27t3 -30q-22 -52 -38 -105l-32 -106t-52 -95q-10 -10 -24 -13t-27 -5t-29 -2q-10 4 -23 7t-24 13t-21 22zM132 856q0 42 31 73t77 31q44 0 76 -31t32 -73q0 -44 -32 -74 t-76 -30q-46 0 -77 30t-31 74z" />
<glyph unicode="&#x3c;" d="M0 688v30t36 60l816 610q76 36 126 -18q10 -14 18 -28t8 -32v-40l-32 -52l-692 -518l704 -536q10 -16 15 -29t5 -31v-34l-26 -48q-10 -10 -24 -18t-40 -12t-86 32l-808 606q-10 10 -15 26t-5 32z" />
<glyph unicode="=" horiz-adv-x="1808" d="M0 485v35q18 66 74 78h1656l46 -26q12 -10 20 -24t10 -29t2 -31q-4 -12 -7 -27t-14 -26l-21 -21l-42 -22h-1640l-58 32q-12 16 -19 29t-7 32zM0 890v32q22 60 78 78h1646q76 -18 84 -110q-16 -78 -78 -96h-1656l-54 38q-10 10 -15 26t-5 32z" />
<glyph unicode="&#x3e;" d="M20 70v34t5 31t15 29l704 536l-692 518l-32 52v40t8 32t18 28q50 54 126 18l816 -610q36 -46 36 -60v-30t-5 -32t-15 -26l-808 -606q-60 -36 -86 -32t-40 12t-24 18z" />
<glyph unicode="?" horiz-adv-x="1852" d="M24 1058q10 48 26 91t39 82t61 71t80 53t87 32t93 15h1026q58 -4 116 -20t106 -45t90 -77q32 -38 53 -85t26 -95t5 -100q-4 -48 -18 -90t-40 -82t-58 -78q-90 -78 -206 -99t-278 -7q-132 4 -178 -46q-20 -22 -23 -51t-8 -55t-27 -48q-10 -10 -23 -16t-29 -8t-32 -2 q-10 4 -24 7t-24 14t-20 21q-12 16 -17 34t-5 37v39q6 32 16 64t31 61t43 55q96 86 215 94t238 2t219 68q16 22 26 46t10 53v55q-4 16 -9 35t-16 32t-27 29q-16 10 -34 21t-40 16t-42 11h-1054q-20 -6 -41 -11t-43 -19t-38 -30q-14 -20 -25 -39t-16 -42t-5 -45q4 -22 12 -43 t21 -42t29 -37q32 -26 75 -34t85 -8t74 -38q10 -10 15 -23t8 -26t3 -29l-36 -70q-16 -10 -35 -18t-37 -8h-40q-52 6 -105 22t-101 45t-86 71q-30 42 -52 90t-31 95t-5 105zM822 141v55l26 54q16 10 29 18t29 11t38 3l64 -38q20 -22 20 -53v-60v-61l-26 -48q-10 -10 -24 -18 t-29 -11t-31 -3q-12 6 -28 8t-26 13t-20 21q-16 22 -19 51t-3 58z" />
<glyph unicode="@" horiz-adv-x="1968" d="M80 350v678q10 52 26 100t42 93t68 81q38 26 77 50t82 35t91 15h1016q58 -10 113 -26t108 -45t91 -77q26 -36 47 -76t32 -80t15 -86v-424q-4 -42 -18 -79t-37 -72t-55 -67q-32 -20 -64 -36t-66 -27t-72 -15h-730q-52 4 -100 20t-93 43t-81 63q-38 42 -59 90t-29 101 t-8 105q6 54 19 104t39 95t64 87q32 28 63 46t66 31t71 25h398q42 -6 79 -19t71 -37t66 -56q54 -68 67 -150t10 -167t-3 -169h90q84 16 100 84v428q-4 22 -12 46t-19 42t-31 34q-16 16 -37 27t-43 16t-42 11h-1032q-22 -6 -40 -11t-37 -16t-35 -27q-16 -22 -29 -45t-21 -50 t-12 -53v-592q4 -28 10 -51t16 -44t32 -43q20 -16 42 -27t43 -19t47 -12h1322q78 -6 90 -112q-12 -78 -100 -100h-1302q-58 6 -113 22t-103 45t-90 71q-26 32 -48 66t-32 74t-20 82zM688 640q4 -16 10 -31t14 -29t18 -24q16 -10 34 -23t40 -19t42 -10h434v274q-6 16 -8 32 t-13 32t-21 26l-48 22h-380q-22 -12 -43 -25t-37 -34t-26 -43q-6 -20 -11 -44t-5 -50v-54z" />
<glyph unicode="A" horiz-adv-x="1828" d="M4 64q-2 11 -2 23t2 25l272 432q20 54 74 54q10 0 22 -2l874 2l-430 642q-13 33 -13 61q0 49 41 81q29 24 60 24q38 0 78 -36l814 -1218q17 -30 17 -61q0 -27 -13 -55q-36 -40 -54 -46t-40 -10q-20 4 -41 12t-37 24l-244 376h-958l-250 -384q-43 -25 -77 -25 q-43 0 -75 39q-16 20 -20 42z" />
<glyph unicode="B" horiz-adv-x="1892" d="M84 70v730q20 72 74 78h1210q84 18 114 50t38 73q5 23 5 46q0 17 -3 33q-30 112 -138 132h-1216l-58 32q-16 22 -23 45q-4 15 -4 31q0 10 1 20q24 68 74 78h1258q64 -16 122 -45t106 -81q52 -64 74 -138q14 -48 15 -100q0 -28 -5 -58q-10 -48 -29 -90t-49 -80 q68 -32 124 -85t86 -121q16 -48 24 -96t8 -100q-4 -90 -41 -169t-111 -143q-74 -58 -162 -85t-178 -37h-1222q-20 6 -39 14t-35 28zM290 202h1132q42 4 79 18t75 34q30 16 57 48t37 64l10 126q-4 32 -23 61t-45 51q-42 32 -92 48t-104 20h-1126v-470z" />
<glyph unicode="C" horiz-adv-x="1950" d="M60 328v678q14 84 46 158t96 138q52 48 113 72t131 28h1110q74 -10 140 -36t120 -90q42 -54 58 -117q12 -46 11 -94q0 -18 -1 -37q-10 -22 -26 -41t-38 -29l-62 -6l-54 32q-29 35 -29 82v9v7q0 48 -39 78l-70 32h-1120q-32 -6 -61 -19t-57 -41q-26 -36 -42 -76t-20 -82 v-598q4 -32 15 -63t31 -59q28 -20 57 -34t61 -18h1136l70 42q20 38 20 85t32 85q22 16 46 24t56 2q20 -10 39 -24t29 -34l10 -80q-4 -68 -33 -132t-89 -112q-42 -30 -89 -46t-101 -22h-1110q-80 10 -154 37t-132 85q-42 48 -66 103t-34 113z" />
<glyph unicode="D" horiz-adv-x="1948" d="M80 70v1254q28 68 94 78h1308q90 -10 172 -44t144 -108q42 -54 64 -112t26 -126v-610q-4 -90 -41 -172t-107 -144q-52 -44 -113 -67t-131 -29h-1322q-20 6 -39 14t-35 28zM286 202h1216l96 36q36 32 55 69t23 79v630q-4 32 -17 64t-45 58q-28 22 -59 35t-63 19h-1206 v-990z" />
<glyph unicode="E" horiz-adv-x="1892" d="M84 70v692q20 66 88 80h1472l58 -32q16 -22 24 -45t2 -55l-26 -48q-16 -10 -32 -18t-36 -14h-1344v-428h1512q86 -14 90 -112q-16 -86 -100 -100h-1614q-20 6 -39 14t-35 28zM84 1324q32 68 94 78h1620q90 -14 94 -110q-4 -22 -12 -40t-24 -34l-54 -26h-1630l-62 30 q-16 22 -23 46q-4 15 -4 34q0 10 1 22z" />
<glyph unicode="F" horiz-adv-x="1892" d="M84 70v692q20 74 88 80h1472l58 -32q16 -22 24 -45t2 -55l-26 -48q-16 -10 -32 -18t-36 -14h-1344v-560q-12 -22 -25 -40t-33 -30l-54 -10q-20 6 -39 14t-35 28zM84 1324q20 76 94 78h1620q82 -14 94 -110q-4 -22 -12 -40t-24 -34l-54 -26h-1630l-62 30q-16 22 -23 46 q-4 15 -4 34q0 10 1 22z" />
<glyph unicode="G" horiz-adv-x="1950" d="M60 328v678q14 84 46 158t96 138q52 48 113 72t131 28h1110q74 -10 140 -36t120 -90q42 -54 58 -117q12 -46 12 -94q0 -18 -2 -37q-10 -22 -26 -41t-38 -29l-62 -6l-54 32q-29 35 -29 82v9v7q0 48 -39 78l-70 32h-1120q-32 -6 -61 -19t-57 -41q-26 -36 -42 -76t-20 -82 v-598q4 -32 15 -63t31 -59q28 -20 57 -34t61 -18h1136q82 22 92 110l-2 238h-946q-58 14 -69 34t-19 44t-2 56q20 78 87 78h3h1064q86 -10 94 -100v-360q-4 -68 -33 -132t-89 -112q-42 -30 -89 -46t-101 -22h-1110q-80 10 -154 37t-132 85q-42 48 -66 103t-34 113z" />
<glyph unicode="H" horiz-adv-x="1968" d="M80 70v1254q28 76 110 78q22 -4 43 -15t37 -31l16 -32v-546h1390v534q12 52 33 66t42 19t43 5q86 -6 94 -100v-1212q-16 -98 -116 -100q-22 6 -40 16t-34 26l-22 48v492h-1390v-502q-12 -22 -25 -40t-33 -30l-54 -10q-20 6 -39 14t-35 28z" />
<glyph unicode="I" horiz-adv-x="406" d="M100 70v1254l26 46q16 16 40 24t44 8q22 -4 40 -12t34 -30l22 -42v-1244q-22 -78 -112 -84q-20 6 -41 16t-37 32z" />
<glyph unicode="J" horiz-adv-x="1928" d="M60 370v234q14 42 58 68l52 12q42 -6 74 -44l22 -36v-202q10 -90 74 -158q48 -38 106 -42h1036q70 4 122 64q42 52 52 120v926q22 60 48 75t70 15q84 -12 94 -100v-900q-10 -184 -148 -316q-106 -86 -244 -96h-1030q-160 10 -282 132q-84 106 -104 248z" />
<glyph unicode="K" horiz-adv-x="1912" d="M80 70v1254q30 70 110 78q48 -4 80 -46l16 -32v-1254q-16 -42 -58 -70l-54 -10q-42 6 -74 42zM502 668q-31 36 -31 71q0 40 41 77l1282 586q88 -12 94 -110v-8q0 -40 -36 -66l-1032 -488l1058 -586q12 -27 12 -51q0 -43 -38 -77q-38 -26 -80 -26z" />
<glyph unicode="L" horiz-adv-x="1888" d="M80 70v1254q34 78 110 78q48 -4 80 -46l16 -32v-1122h1512q80 -22 90 -112q-20 -86 -100 -100h-1614q-42 6 -74 42z" />
<glyph unicode="M" horiz-adv-x="1968" d="M80 70v1254q20 83 86 83q22 0 48 -9l770 -752l756 768l16 4h54l46 -26q28 -32 32 -68v-1234q-16 -98 -116 -100q-42 6 -74 42l-22 48v968l-656 -654q-28 -18 -58 -2l-672 646l-4 -6v-962q-16 -42 -58 -70l-54 -10q-42 6 -74 42z" />
<glyph unicode="N" horiz-adv-x="1968" d="M80 70v1254q11 84 73 84q16 0 37 -6l1486 -1090v1000l38 64q36 26 80 26q80 -20 94 -100v-1212q-15 -92 -81 -92q-24 0 -55 12l-1466 1080v-1020q-16 -42 -58 -70l-54 -10q-42 6 -74 42z" />
<glyph unicode="O" horiz-adv-x="1928" d="M60 370v658q20 152 136 274q112 90 250 100h1016q180 -16 306 -148q90 -116 100 -264v-588q-10 -184 -148 -316q-106 -86 -244 -96h-1030q-160 10 -282 132q-84 106 -104 248zM266 402q10 -90 74 -158q48 -38 106 -42h1036l96 36q64 64 78 148v614q-4 80 -68 138 q-52 42 -116 54h-1032q-64 -6 -112 -54q-52 -64 -62 -148v-588z" />
<glyph unicode="P" horiz-adv-x="1888" d="M80 70v614q22 74 88 78h1328q86 12 144 80q32 42 36 96v78q-4 70 -62 122q-54 42 -122 54h-1324q-66 18 -88 78v54q26 70 94 78h1308q180 -10 312 -148q84 -106 94 -242v-70q-10 -174 -148 -296q-116 -80 -254 -96h-1200v-480q-16 -42 -58 -70l-54 -10q-42 6 -74 42z" />
<glyph unicode="Q" horiz-adv-x="1928" d="M60 370v658q20 152 136 274q112 90 250 100h1016q180 -16 306 -148q90 -116 100 -264v-588q-10 -184 -148 -316q-106 -86 -244 -96h-412v-122q-26 -62 -74 -74h-58q-56 16 -68 64l-6 16v116h-412q-160 10 -282 132q-84 106 -104 248zM266 402q10 -90 74 -158 q48 -38 106 -42h412v116q22 80 116 84q72 -16 90 -78v-122h418q70 4 122 64q42 52 52 120v614q-4 80 -68 138q-52 42 -116 54h-1032q-64 -6 -112 -54q-52 -64 -62 -148v-588z" />
<glyph unicode="R" horiz-adv-x="1948" d="M80 70v614q30 74 88 78h1250q84 12 142 80q32 48 38 100v70q-6 74 -64 126q-52 42 -122 54h-1244q-66 18 -88 78v54q34 74 94 78h1222q186 -10 318 -148q68 -90 90 -200v-54l6 -48q-6 -142 -96 -258q96 -64 138 -164q32 -74 36 -160v-280q-12 -98 -116 -100q-42 6 -74 42 l-22 48v306q-10 70 -62 122q-48 38 -106 42h-58h-1164v-480q-16 -42 -58 -70l-54 -10q-42 6 -74 42z" />
<glyph unicode="S" horiz-adv-x="1928" d="M60 292v68q24 54 49 70q18 12 51 12q12 0 26 -2q78 -22 78 -80t27 -100t81 -58h1100q84 16 148 80q26 42 36 94v80q-4 74 -68 126q-48 38 -112 48h-1014q-186 10 -324 148q-64 80 -78 174v128q20 126 126 222q126 90 276 100h1074q142 -10 242 -106q90 -104 90 -248 q-4 -42 -42 -74q-31 -23 -76 -23q-7 0 -14 1q-52 24 -66 56t-19 93t-105 91h-1096q-90 -12 -152 -76q-32 -52 -32 -116q0 -62 52 -106q58 -42 132 -52h1022q174 -16 306 -154q80 -106 90 -238v-68q-10 -170 -142 -292q-122 -90 -270 -100h-1084q-144 10 -238 122 q-60 80 -74 180z" />
<glyph unicode="T" horiz-adv-x="1808" d="M0 1270v54q34 74 94 78h1620q88 -16 94 -110q-4 -42 -36 -74l-54 -26h-714v-1122l-26 -48q-38 -32 -84 -32q-44 6 -74 42l-22 42v1118h-710q-62 18 -88 78z" />
<glyph unicode="U" horiz-adv-x="1928" d="M60 350v974q30 74 110 78q48 -4 80 -46l16 -32v-926q0 -80 58 -138q58 -48 132 -58h1026q70 4 122 64q42 52 52 120v926q14 56 44 73t74 17q80 -8 94 -100v-900q-10 -184 -148 -316q-106 -86 -244 -96h-1010q-174 10 -306 138q-86 94 -100 222z" />
<glyph unicode="V" horiz-adv-x="1818" d="M8 1270q-1 10 -1 19q0 57 43 93q41 21 72 21q5 0 10 -1q34 -4 66 -46l712 -1064l734 1096q37 13 68 13t56 -13q48 -25 48 -109v-7l-830 -1250q-38 -32 -84 -32q-44 6 -74 42z" />
<glyph unicode="W" horiz-adv-x="2222" d="M12 1270q-2 11 -2 22q0 49 44 90q41 21 72 21q5 0 10 -1q34 -4 66 -46l428 -986l416 984q23 49 81 49q8 0 17 -1q42 -4 74 -42l428 -978l376 968q37 52 84 52h7q51 -4 83 -42q23 -31 23 -76q0 -7 -1 -14l-480 -1242q-33 -35 -78 -35h-7q-49 3 -81 39l-434 990l-416 -988 q-34 -44 -98 -44q-42 6 -74 42z" />
<glyph unicode="X" horiz-adv-x="1856" d="M44 32q-21 40 -21 73q0 37 27 65l708 560l-630 492q-26 34 -26 83v13q30 86 108 86q20 0 44 -6l674 -534l670 530q29 11 53 11q39 0 65 -29q36 -34 36 -75q0 -28 -16 -59l-638 -514l708 -564q23 -34 23 -67q0 -40 -33 -81q-32 -24 -71 -24q-20 0 -41 6l-754 596 l-746 -590q-32 -11 -59 -11q-50 0 -81 39z" />
<glyph unicode="Y" horiz-adv-x="1808" d="M0 1270v54q31 81 101 81q26 0 57 -11l752 -600l752 608q18 3 33 3q101 0 113 -113q-4 -48 -42 -80l-762 -608v-534l-26 -48q-38 -32 -84 -32q-44 6 -74 42l-22 42v530l-794 650z" />
<glyph unicode="Z" horiz-adv-x="1824" d="M16 70q-4 17 -4 32q0 39 30 68l1358 1024l-1296 -2q-70 22 -88 78v54q30 74 94 78h1620q88 -8 94 -110q-4 -48 -42 -80l-1338 -1006l1290 -4q88 -18 90 -112q-16 -86 -100 -100h-1614q-42 6 -74 42z" />
<glyph unicode="[" horiz-adv-x="712" d="M80 -304v1602q4 10 7 26t11 26t12 22l64 30h424q72 -2 94 -100q-10 -82 -82 -110h-320v-1390h298q58 -2 76 -28t21 -39t7 -29q-18 -94 -84 -110h-444l-42 20q-12 10 -22 24t-13 27t-7 29z" />
<glyph unicode="\" horiz-adv-x="2176" d="M80 495v37l34 54q32 28 75 26t85 -2h86v196h-94h-91t-77 38q-10 8 -14 25t-4 33v30l30 56q36 26 82 26h91h85q12 48 31 95t45 93t64 82q42 38 92 67t107 45t115 24h1176l70 -34q10 -16 19 -30t9 -33v-39l-34 -50l-54 -28h-1190q-32 -6 -67 -17t-62 -32t-53 -47l-50 -96 h864l56 -38q14 -10 19 -21t5 -27t4 -26l-28 -64l-50 -32h-888v-196h888l46 -28l32 -78q-4 -16 -7 -30t-14 -27t-21 -23l-42 -24h-864v-8q14 -24 23 -47t29 -41t40 -38q20 -18 42 -28t46 -16t52 -12h1190l64 -36q10 -16 17 -30t7 -32v-32l-28 -50q-14 -6 -23 -14t-23 -10 t-24 -6h-1170q-60 4 -119 19t-109 45t-98 72q-38 38 -61 80t-42 90t-31 94h-91h-94t-81 34q-8 16 -15 29t-7 32z" />
<glyph unicode="]" horiz-adv-x="712" d="M20 -294q4 16 7 29t21 39t76 28h298v1390h-320q-72 28 -82 110q22 98 94 100h424l64 -30q4 -12 12 -22t11 -26t7 -26v-1602q-4 -16 -7 -29t-13 -27t-22 -24l-42 -20h-444q-66 16 -84 110z" />
<glyph unicode="^" horiz-adv-x="1968" d="M80 370v658q10 46 26 97t42 96t68 81q38 26 77 50t82 35t91 15h1016q58 -4 113 -23t105 -48t88 -77q32 -36 53 -79t32 -90t15 -95v-588q-4 -58 -20 -116t-48 -108t-80 -92q-36 -28 -76 -49t-80 -31t-88 -16h-1030q-54 6 -101 22t-95 42t-86 68q-30 38 -49 77t-35 82 t-20 89zM286 402q4 -26 12 -55t24 -55t38 -48q16 -10 32 -18t34 -14t40 -10h1036l96 36q20 22 36 46t27 50t15 52v614q-4 28 -12 51t-21 44t-35 43q-16 10 -34 24t-40 19t-42 11h-1032q-22 -6 -40 -11t-37 -16t-35 -27q-16 -22 -29 -45t-21 -50t-12 -53v-588zM473 686 q3 72 3 146q6 32 19 63t31 58t46 53q26 22 58 35t63 23t63 16h652l52 -32q10 -10 16 -26t8 -32t2 -32l-36 -64l-42 -20h-610q-16 -6 -34 -8t-34 -10t-32 -20q-10 -36 -10 -84v-90v-90l36 -38l80 -14h604l52 -32q10 -12 16 -27t8 -31t2 -32l-32 -58l-46 -28h-646 q-42 6 -82 19t-74 34t-66 53q-48 58 -59 127t-8 141z" />
<glyph unicode="_" />
<glyph unicode="`" />
<glyph unicode="a" horiz-adv-x="1492" d="M0 80v32l238 380l46 28h688v10l-328 482q-7 25 -7 47q0 50 39 79q10 10 26 16t32 6t30 2h1q15 0 71 -40l656 -1006q-10 -92 -28 -108t-35 -20t-36 -4h-35l-58 38l-180 290h-756l-190 -300q-16 -12 -29 -20t-32 -8h-35l-58 38q-10 10 -15 26t-5 32z" />
<glyph unicode="b" horiz-adv-x="1566" d="M80 70v598q18 78 94 78h958q56 14 80 58q10 12 13 28t3 31v31q-6 12 -17 25t-24 21t-23 18l-26 10h-980l-58 38q-10 10 -15 26t-5 32v32q20 70 78 80h1010q38 -12 72 -25t69 -37t61 -56q26 -30 42 -68t24 -80q5 -24 5 -48q0 -18 -3 -36q-4 -26 -12 -50t-19 -45t-21 -43 q32 -20 66 -47t55 -59t37 -68q12 -32 17 -61t5 -63v-66q-10 -38 -21 -75t-35 -71t-50 -66q-42 -38 -92 -64t-103 -39t-111 -19h-980q-10 6 -26 8t-27 13l-21 21zM286 202h888l96 32q16 10 29 18t23 21t22 29l16 96q-6 16 -9 29t-11 26t-18 23q-20 16 -44 27t-48 19t-50 12 h-894v-332z" />
<glyph unicode="c" horiz-adv-x="1626" d="M60 276v556q10 46 26 94t42 90t68 74q28 16 51 29t52 24t57 17h952q32 -6 66 -19t63 -32t55 -45q28 -32 44 -66t23 -74q4 -25 4 -52q0 -15 -1 -30l-38 -58q-10 -10 -26 -16t-34 -6h-34q-46 18 -60 38t-14 44t-3 45t-19 39t-58 24h-878q-16 -4 -32 -7t-32 -13t-26 -26 t-18 -32t-14 -35t-10 -39v-482l32 -80q10 -10 23 -18t26 -11t29 -7h910q40 18 44 41t7 46t11 45t28 36q12 12 27 17t31 5h32l54 -32q16 -16 21 -37t5 -45v-44q-6 -32 -16 -59t-26 -53t-38 -52q-26 -22 -55 -40t-64 -26t-65 -14h-900q-42 6 -85 19t-82 34t-71 53 q-22 26 -40 55t-29 61t-15 64z" />
<glyph unicode="d" horiz-adv-x="1626" d="M80 70v1010q16 74 78 80h1096q42 -12 84 -25t79 -37t69 -60q22 -26 38 -56t26 -61t16 -63v-546q-10 -46 -24 -91t-40 -85t-68 -72q-26 -22 -58 -37t-67 -23t-71 -14h-1064q-10 6 -26 8t-34 14t-34 58zM286 202h952l58 20q22 16 35 35t18 43t11 44v466q-6 16 -9 35t-11 37 t-22 28q-16 12 -30 22t-32 13t-34 7h-936v-750z" />
<glyph unicode="e" horiz-adv-x="1566" d="M80 70v566q22 78 94 78h1170q10 -4 26 -7t27 -13t21 -22q10 -10 13 -23t5 -29t2 -32q-22 -68 -90 -84h-1062v-302h1196q44 -14 53 -28t17 -30t11 -32t3 -38q-22 -70 -96 -84h-1296q-10 6 -26 8t-27 13l-21 21zM80 1048v32q20 70 78 80h1328q50 -22 60 -35t15 -29t5 -32 v-32q-20 -60 -80 -80h-1328l-58 38q-10 10 -15 26t-5 32z" />
<glyph unicode="f" horiz-adv-x="1566" d="M80 70v566q26 78 94 78h1170q10 -4 26 -7t27 -13t21 -22q10 -10 13 -23t5 -29t2 -32q-26 -72 -90 -84h-1062v-434q-6 -12 -14 -25t-21 -26t-23 -19l-54 -10q-10 6 -26 8t-27 13l-21 21zM80 1048v32q20 74 78 80h1328q50 -18 60 -33t15 -31t5 -32v-32q-20 -64 -80 -80 h-1328l-58 38q-10 10 -15 26t-5 32z" />
<glyph unicode="g" horiz-adv-x="1626" d="M60 276v556q10 46 26 94t42 90t68 74q28 16 51 29t52 24t57 17h952q32 -6 66 -19t63 -32t55 -45q28 -32 44 -66t23 -74q4 -25 4 -52q0 -15 -1 -30l-38 -58q-10 -10 -26 -16t-34 -6h-34q-46 18 -60 38t-14 44t-3 45t-13 37t-64 26h-878q-16 -4 -32 -7t-32 -13t-26 -26 t-18 -32t-14 -35t-10 -39v-482q8 -96 106 -116h914q34 10 48 42l-2 196h-738q-52 16 -63 32t-17 26t-6 26t-4 26q8 50 37 77q27 25 64 25h5h836q16 -6 29 -9t26 -13t23 -20l22 -44v-332q-6 -32 -16 -59t-26 -53t-38 -52q-26 -22 -55 -40t-64 -26t-65 -14h-894q-44 6 -89 19 t-84 31t-71 56q-22 26 -40 55t-29 61t-15 64z" />
<glyph unicode="h" horiz-adv-x="1646" d="M80 70v1010q18 56 48 68t46 12h32q70 -18 80 -80v-412h1074v418q10 10 15 26t19 26t28 16l64 6q66 -14 80 -80v-1006q-26 -82 -112 -84q-76 16 -94 80v386h-1074v-386q-6 -12 -14 -25t-21 -26t-23 -19l-54 -10q-10 6 -26 8t-27 13l-21 21z" />
<glyph unicode="i" horiz-adv-x="406" d="M100 70v1010q18 56 48 68t46 12h32q74 -22 80 -80v-1010q-22 -76 -104 -80q-76 2 -102 80z" />
<glyph unicode="j" horiz-adv-x="1606" d="M60 504q16 46 31 57t31 16t35 5h35q52 -16 65 -53q9 -25 9 -89q0 -30 -2 -68q18 -156 124 -170h830q16 4 32 7t29 16t23 25q10 16 18 29t11 31t9 34v742q10 10 15 26t19 26t28 16l64 6q62 -10 80 -80v-768q-10 -46 -24 -91t-40 -85t-68 -72q-26 -22 -58 -37t-67 -23 t-71 -14h-830q-44 6 -83 16t-76 31t-69 53q-48 58 -74 125t-26 289z" />
<glyph unicode="k" horiz-adv-x="1590" d="M80 70v1010q22 60 50 70t44 10h32q66 -18 80 -80v-1010q-6 -12 -14 -25t-21 -26t-23 -19l-54 -10q-10 6 -26 8t-27 13l-21 21zM436 692l978 460q34 9 59 9q35 0 53 -18q30 -31 35 -47q7 -23 7 -49q0 -29 -34 -67l-794 -376l804 -432q26 -33 26 -71q0 -28 -14 -57 q-31 -50 -115 -50h-7l-996 536q-42 39 -42 81q0 40 40 81z" />
<glyph unicode="l" horiz-adv-x="1566" d="M80 70v1010q24 54 35 61t27 13t32 6h32q74 -22 80 -80v-878h1196q52 -22 57 -32l13 -26t11 -32t3 -38q-22 -74 -96 -84h-1296q-10 6 -26 8t-27 13l-21 21z" />
<glyph unicode="m" horiz-adv-x="1646" d="M80 70v1010q16 46 31 57t47 27h10q54 0 102 -40l554 -550l574 582q39 21 76 21q6 0 12 -1q74 -22 80 -80v-1022q-26 -82 -112 -84q-72 20 -94 80l2 744l-484 -488q-26 -16 -52 -16l-48 14l-492 486v-740q-6 -12 -14 -25t-21 -26t-23 -19l-54 -10q-10 6 -26 8t-27 13 l-21 21z" />
<glyph unicode="n" horiz-adv-x="1646" d="M80 70v1010q12 50 29 59t33 15t42 8h4q25 0 66 -26l1108 -828l-2 778q10 10 15 26t19 26t27 17q10 5 44 5h21q66 -22 80 -80v-1006q-27 -81 -87 -81q-33 0 -77 25l-1116 832v-780q-22 -80 -112 -80q-10 6 -38 12t-56 68z" />
<glyph unicode="o" horiz-adv-x="1606" d="M60 308v540q10 42 23 84t39 82t64 72q26 16 53 31t56 26t61 17h878q42 -12 84 -25t79 -39t69 -64q22 -26 38 -55t24 -64t18 -65v-536q-10 -46 -24 -91t-40 -85t-68 -72q-26 -22 -58 -37t-67 -23t-71 -14h-830q-44 6 -83 16t-76 31t-69 53q-26 32 -48 67t-35 72t-17 79z M266 340q4 -22 10 -43t21 -40t31 -35l60 -20h830l58 20q22 16 35 35t18 43t11 44v456q-6 20 -9 42t-16 40t-29 34q-16 10 -29 18t-29 11t-32 7h-798q-16 -4 -32 -7t-32 -11t-26 -24t-21 -31t-14 -34t-7 -35v-470z" />
<glyph unicode="p" horiz-adv-x="1566" d="M80 70v496q22 86 97 86h3h1058q62 16 81 39t27 42t8 37t6 40q-6 16 -9 35t-11 37t-22 28q-16 12 -30 20t-32 13t-34 9h-1064l-58 38q-10 10 -15 26t-5 32v32q20 70 78 80h1096q42 -12 84 -25t79 -37t69 -60q32 -42 53 -90t24 -101t3 -105q-10 -38 -24 -78t-35 -71 t-53 -63q-32 -26 -66 -42t-71 -29t-79 -19h-952v-370q-6 -12 -14 -25t-21 -26t-23 -19l-54 -10q-10 6 -26 8t-27 13l-21 21z" />
<glyph unicode="q" horiz-adv-x="1606" d="M60 308v540q10 42 23 84t39 82t64 72q26 16 53 31t56 26t61 17h878q42 -12 84 -25t79 -39t69 -64q22 -26 38 -55t24 -64t18 -65v-536q-10 -46 -24 -91t-40 -85t-68 -72q-70 -68 -244 -72l-264 -2v-68q-12 -44 -26 -58q-16 -12 -30 -20t-29 -10t-37 -2q-70 18 -84 90v64 l-286 2q-180 22 -254 102q-26 32 -48 67t-32 72t-20 79zM266 340q4 -22 10 -43t21 -40t31 -35q54 -23 108 -23h12q60 3 124 3h128v80q22 48 50 63t44 15h32q72 -12 80 -90v-68h312q16 4 32 7t29 16t23 25q10 16 18 29t11 31t9 34v456q-6 20 -9 42t-16 40t-29 34 q-16 10 -29 18t-29 11t-32 7h-798q-16 -4 -35 -7t-35 -13t-26 -26t-18 -29t-11 -32t-7 -35v-470z" />
<glyph unicode="r" horiz-adv-x="1632" d="M80 70v496q22 84 100 86h994q84 26 90 42t16 34t10 37t6 39q-6 22 -8 41t-10 34t-24 31q-16 12 -29 20t-32 13t-35 9h-1000l-58 38q-10 10 -15 26t-5 32v32q24 66 78 80h1032q42 -12 85 -25t80 -37t67 -60q32 -42 53 -87t27 -98q3 -26 3 -53t-3 -54q-6 -32 -13 -61 t-23 -55t-28 -52q16 -12 32 -28t27 -34t27 -34q32 -64 40 -130q6 -48 6 -99q0 -19 -1 -38q-3 -71 -3 -141q-18 -82 -112 -84q-80 20 -92 90l-2 138q1 21 1 40q0 119 -43 150q-12 10 -25 16t-29 8t-26 8h-952v-370q-6 -12 -14 -25t-21 -26t-23 -19l-54 -10q-10 6 -26 8 t-27 13l-21 21z" />
<glyph unicode="s" horiz-adv-x="1496" d="M4 312q22 58 50 69t44 11h32q54 -16 66 -37t18 -69q6 -52 28 -68l30 -16h884q16 4 35 12t35 19t30 27q12 16 17 32t5 37t6 37q-6 16 -9 37t-13 34t-26 29q-10 10 -24 18t-27 11t-29 9h-824q-44 4 -89 17t-84 35t-71 54q-32 36 -56 81t-28 93q-2 24 -2 49t2 51q4 38 17 72 t35 63t52 55q32 22 64 40t66 26t72 20h926q32 -6 66 -19t63 -32t55 -45q28 -32 44 -66t24 -74q6 -29 6 -56q0 -10 -1 -19q-3 -35 -41 -65q-10 -10 -26 -16t-34 -6h-34q-38 14 -56 36t-18 46t-6 45t-9 37t-65 26h-858q-20 -4 -41 -9t-40 -16t-35 -27q-10 -10 -13 -26t-5 -29 t-2 -29l26 -58q16 -12 29 -20t29 -13t32 -11h820q52 -4 100 -20t90 -43t80 -69q32 -42 50 -87t21 -98t3 -105q-10 -42 -24 -82t-40 -74t-64 -66q-30 -28 -68 -43t-75 -23t-79 -14h-872q-38 6 -75 19t-69 34t-58 53q-20 32 -36 66t-23 71q-4 24 -4 49q0 15 1 30z" />
<glyph unicode="t" horiz-adv-x="1486" d="M0 1048v32q20 70 78 80h1328q62 -24 71 -52t9 -44v-32q-20 -60 -80 -80h-560v-878q-18 -82 -112 -84q-16 6 -29 8t-26 16t-23 24l-16 32v882h-562l-58 38q-10 10 -15 26t-5 32z" />
<glyph unicode="u" horiz-adv-x="1606" d="M60 292v788q22 52 48 66t44 14h34q66 -14 80 -80v-746q4 -16 7 -37t16 -34l29 -29l74 -32h826q16 4 32 7t29 16t23 25q10 16 18 29t11 31t9 34v742q10 10 15 26t27 32t84 16q70 -22 80 -80v-768q-10 -46 -24 -91t-40 -85t-68 -72q-26 -22 -58 -37t-67 -23t-71 -14h-816 q-46 6 -89 19t-82 34t-77 53q-26 26 -45 58t-29 66t-20 72z" />
<glyph unicode="v" horiz-adv-x="1492" d="M16 1004q-10 32 -10 58q0 55 44 86q32 12 66 14h3q33 0 69 -40l562 -830l534 804q44 66 100 66q35 0 76 -26q33 -40 33 -79q0 -31 -21 -61l-628 -944q-47 -62 -102 -62h-4q-16 6 -29 8t-26 16t-35 42z" />
<glyph unicode="w" horiz-adv-x="1808" d="M8 1016q-5 24 -5 44q0 58 43 88q32 14 60 14q60 0 98 -66l314 -726l290 694q28 92 108 100q40 -4 54 -15t27 -24t35 -73l296 -670l276 706q21 74 102 74q12 0 24 -2q74 -36 74 -104q0 -22 -8 -48l-360 -940q-36 -72 -96 -78h-9q-54 0 -91 70l-320 724l-300 -716 q-30 -78 -98 -78h-10h-3l-85 54z" />
<glyph unicode="x" horiz-adv-x="1496" d="M24 28q-21 36 -21 69q0 38 27 73l548 430l-474 380q-38 40 -38 79.5t38 78.5q10 10 26 16t32 6t78 -20l510 -404l478 384q55 44 99 44q40 0 73 -36q29 -36 29 -71q0 -39 -35 -77l-472 -374l536 -430q36 -39 36 -80q0 -35 -26 -72q-34 -31 -73 -31q-31 0 -67 19l-584 454 l-572 -450q-36 -23 -69 -23q-41 0 -79 35z" />
<glyph unicode="y" horiz-adv-x="1500" d="M28 988q-26 34 -26 69t26 71q37 33 76 33q41 0 84 -37l566 -440l522 424q66 56 117 56q37 0 67 -28q34 -36 34 -74q0 -43 -42 -88l-602 -482v-418q-26 -82 -112 -84q-16 6 -29 8t-31 14t-34 58v422z" />
<glyph unicode="z" horiz-adv-x="1492" d="M-2 108q0 28 28 62l1040 782h-988q-58 26 -63 37t-10 27t-5 32v32q24 70 78 80h1328q54 -14 70 -48q17 -25 17 -51q0 -40 -39 -81l-1032 -774l980 -4q78 -18 86 -102q-4 -92 -98 -110h-1296q-10 6 -26 8t-27 13l-21 21q-6 10 -13 26q-9 21 -9 50z" />
<glyph unicode="{" horiz-adv-x="884" d="M20 508q0 40 42 76q26 16 60 16h69h65v714q26 74 96 88h418q10 -4 26 -7t27 -13t21 -22q10 -10 15 -26t5 -32v-32q-18 -62 -86 -76l-310 -2v-1390h316q66 -24 73 -52t7 -44v-32q-16 -70 -78 -78h-450q-60 18 -80 84v714h-73t-74 2t-63 28q-12 16 -19 30t-7 54z" />
<glyph unicode="|" horiz-adv-x="370" d="M80 -304v1602q4 16 7 29t25 42t84 33q10 -4 26 -7t26 -13l22 -22l20 -46v-1634q-20 -58 -34 -64t-27 -13t-31 -7h-34q-72 26 -84 100z" />
<glyph unicode="}" horiz-adv-x="884" d="M20 -294q0 16 7 44t73 52h316v1390l-310 2q-68 14 -86 76v32t5 32t15 26q10 12 21 22t27 13t26 7h418q70 -14 96 -88v-714h65h69t60 -16q42 -36 42 -76t-7 -54t-19 -30q-26 -26 -63 -28t-74 -2h-73v-714q-20 -66 -80 -84h-450q-62 8 -78 78v32z" />
<glyph unicode="~" horiz-adv-x="1806" d="M0 486v34q4 16 12 32t24 26t26 26q80 70 167 123t185 84t204 31q116 -10 214 -65t195 -114t215 -63q90 16 172 58t150 103t105 75t74 -4t43 -27t11 -20t5 -27t2 -35t-40 -71q-78 -74 -173 -135t-201 -95t-218 -28q-116 16 -219 74t-203 116t-222 48q-80 -28 -156 -67 t-140 -97t-148 -74l-58 30q-12 16 -19 30t-7 32z" />
<glyph unicode="&#xa0;" />
<glyph unicode="&#xa1;" />
<glyph unicode="&#xa2;" />
<glyph unicode="&#xa3;" />
<glyph unicode="&#xa4;" />
<glyph unicode="&#xa5;" />
<glyph unicode="&#xa6;" />
<glyph unicode="&#xa7;" />
<glyph unicode="&#xa8;" />
<glyph unicode="&#xa9;" />
<glyph unicode="&#xaa;" />
<glyph unicode="&#xab;" />
<glyph unicode="&#xac;" />
<glyph unicode="&#xad;" />
<glyph unicode="&#xae;" />
<glyph unicode="&#xaf;" />
<glyph unicode="&#xb0;" />
<glyph unicode="&#xb1;" />
<glyph unicode="&#xb2;" />
<glyph unicode="&#xb3;" />
<glyph unicode="&#xb4;" />
<glyph unicode="&#xb5;" />
<glyph unicode="&#xb6;" />
<glyph unicode="&#xb7;" />
<glyph unicode="&#xb8;" />
<glyph unicode="&#xb9;" />
<glyph unicode="&#xba;" />
<glyph unicode="&#xbb;" />
<glyph unicode="&#xbc;" />
<glyph unicode="&#xbd;" />
<glyph unicode="&#xbe;" />
<glyph unicode="&#xbf;" />
<glyph unicode="&#xc0;" />
<glyph unicode="&#xc1;" />
<glyph unicode="&#xc2;" />
<glyph unicode="&#xc3;" />
<glyph unicode="&#xc4;" />
<glyph unicode="&#xc5;" />
<glyph unicode="&#xc6;" />
<glyph unicode="&#xc7;" />
<glyph unicode="&#xc8;" />
<glyph unicode="&#xc9;" />
<glyph unicode="&#xca;" />
<glyph unicode="&#xcb;" />
<glyph unicode="&#xcc;" />
<glyph unicode="&#xcd;" />
<glyph unicode="&#xce;" />
<glyph unicode="&#xcf;" />
<glyph unicode="&#xd0;" />
<glyph unicode="&#xd1;" />
<glyph unicode="&#xd2;" />
<glyph unicode="&#xd3;" />
<glyph unicode="&#xd4;" />
<glyph unicode="&#xd5;" />
<glyph unicode="&#xd6;" />
<glyph unicode="&#xd7;" />
<glyph unicode="&#xd8;" />
<glyph unicode="&#xd9;" />
<glyph unicode="&#xda;" />
<glyph unicode="&#xdb;" />
<glyph unicode="&#xdc;" />
<glyph unicode="&#xdd;" />
<glyph unicode="&#xde;" />
<glyph unicode="&#xdf;" />
<glyph unicode="&#xe0;" />
<glyph unicode="&#xe1;" />
<glyph unicode="&#xe2;" />
<glyph unicode="&#xe3;" />
<glyph unicode="&#xe4;" />
<glyph unicode="&#xe5;" />
<glyph unicode="&#xe6;" />
<glyph unicode="&#xe7;" />
<glyph unicode="&#xe8;" />
<glyph unicode="&#xe9;" />
<glyph unicode="&#xea;" />
<glyph unicode="&#xeb;" />
<glyph unicode="&#xec;" />
<glyph unicode="&#xed;" />
<glyph unicode="&#xee;" />
<glyph unicode="&#xef;" />
<glyph unicode="&#xf0;" />
<glyph unicode="&#xf1;" />
<glyph unicode="&#xf2;" />
<glyph unicode="&#xf3;" />
<glyph unicode="&#xf4;" />
<glyph unicode="&#xf5;" />
<glyph unicode="&#xf6;" />
<glyph unicode="&#xf7;" />
<glyph unicode="&#xf8;" />
<glyph unicode="&#xf9;" />
<glyph unicode="&#xfa;" />
<glyph unicode="&#xfb;" />
<glyph unicode="&#xfc;" />
<glyph unicode="&#xfd;" />
<glyph unicode="&#xfe;" />
<glyph unicode="&#xff;" />
<glyph unicode="&#x152;" />
<glyph unicode="&#x153;" />
<glyph unicode="&#x178;" />
<glyph unicode="&#x2c6;" />
<glyph unicode="&#x2dc;" />
<glyph unicode="&#x2000;" horiz-adv-x="715" />
<glyph unicode="&#x2001;" horiz-adv-x="1430" />
<glyph unicode="&#x2002;" horiz-adv-x="715" />
<glyph unicode="&#x2003;" horiz-adv-x="1430" />
<glyph unicode="&#x2004;" horiz-adv-x="476" />
<glyph unicode="&#x2005;" horiz-adv-x="357" />
<glyph unicode="&#x2006;" horiz-adv-x="238" />
<glyph unicode="&#x2007;" horiz-adv-x="238" />
<glyph unicode="&#x2008;" horiz-adv-x="178" />
<glyph unicode="&#x2009;" horiz-adv-x="286" />
<glyph unicode="&#x200a;" horiz-adv-x="79" />
<glyph unicode="&#x2010;" horiz-adv-x="1808" d="M0 688v32q16 64 78 80h1652q74 -24 78 -112q-4 -10 -7 -26t-14 -27l-21 -21l-42 -20h-1646q-58 36 -52 25t-10 21t-16 48z" />
<glyph unicode="&#x2011;" horiz-adv-x="1808" d="M0 688v32q16 64 78 80h1652q74 -24 78 -112q-4 -10 -7 -26t-14 -27l-21 -21l-42 -20h-1646q-58 36 -52 25t-10 21t-16 48z" />
<glyph unicode="&#x2012;" horiz-adv-x="1808" d="M0 688v32q16 64 78 80h1652q74 -24 78 -112q-4 -10 -7 -26t-14 -27l-21 -21l-42 -20h-1646q-58 36 -52 25t-10 21t-16 48z" />
<glyph unicode="&#x2013;" />
<glyph unicode="&#x2014;" />
<glyph unicode="&#x2018;" />
<glyph unicode="&#x2019;" />
<glyph unicode="&#x201a;" />
<glyph unicode="&#x201c;" />
<glyph unicode="&#x201d;" />
<glyph unicode="&#x201e;" />
<glyph unicode="&#x2022;" />
<glyph unicode="&#x2026;" />
<glyph unicode="&#x202f;" horiz-adv-x="286" />
<glyph unicode="&#x2039;" />
<glyph unicode="&#x203a;" />
<glyph unicode="&#x205f;" horiz-adv-x="357" />
<glyph unicode="&#x20ac;" />
<glyph unicode="&#x2122;" />
<glyph unicode="&#x25fc;" horiz-adv-x="1160" d="M0 0v1160h1160v-1160h-1160z" />
</font>
</defs>
</svg>
